<?xml version="1.0" encoding="UTF-8"?>
<svg xmlns="http://www.w3.org/2000/svg" xmlns:xlink="http://www.w3.org/1999/xlink" width="375pt" height="374.999991pt" viewBox="0 0 375 374.999991" version="1.2">
<defs>
<clipPath id="clip1">
  <path d="M 120.304688 112.804688 L 256.675781 112.804688 L 256.675781 251.273438 L 120.304688 251.273438 Z M 120.304688 112.804688 "/>
</clipPath>
<clipPath id="clip2">
  <path d="M 120.304688 117 L 256.675781 117 L 256.675781 244 L 120.304688 244 Z M 120.304688 117 "/>
</clipPath>
<clipPath id="clip3">
  <path d="M 126.113281 120.464844 L 253.617188 120.464844 L 253.617188 262.773438 L 126.113281 262.773438 Z M 126.113281 120.464844 "/>
</clipPath>
</defs>
<g id="surface1">
<g clip-path="url(#clip1)" clip-rule="nonzero">
<path style=" stroke:none;fill-rule:nonzero;fill:rgb(23.529053%,68.238831%,23.919678%);fill-opacity:1;" d="M 180.832031 215.453125 C 178.515625 218.9375 170.019531 212.355469 171.5625 209.648438 C 173.199219 206.777344 175.46875 208.128906 177.742188 209.648438 C 180.058594 211.195312 182.675781 212.683594 180.832031 215.453125 Z M 172.722656 180.621094 C 173.585938 178.890625 176.585938 181.394531 177.355469 182.945312 C 178.128906 184.492188 177.742188 185.265625 175.425781 184.105469 C 173.109375 182.945312 171.949219 182.167969 172.722656 180.621094 Z M 217.335938 189.328125 C 236.652344 195.523438 246.695312 197.84375 254.035156 195.132812 C 254.035156 195.132812 254.90625 190.269531 255.292969 183.515625 C 255.550781 178.960938 257.148438 173.988281 256.542969 168.625 C 256.257812 166.082031 254.265625 163.109375 253.648438 160.691406 C 253.648438 160.691406 236.265625 161.851562 223.902344 165.335938 C 211.542969 168.816406 209.996094 156.820312 227.378906 158.753906 C 234.589844 159.558594 239.742188 161.078125 247.851562 159.144531 C 252.128906 158.121094 253.640625 153.21875 253.285156 148.828125 C 252.976562 144.996094 251.640625 139.578125 250.945312 133.988281 C 249.785156 124.699219 253.261719 120.828125 253.261719 120.828125 C 253.261719 120.828125 250.140625 120.746094 245.726562 119.085938 C 241.847656 117.628906 236.945312 114.644531 232.59375 113.667969 C 225.171875 112.003906 220.503906 113.046875 213.472656 114.25 C 197.636719 116.957031 203.042969 127.796875 204.589844 133.601562 C 206.136719 139.40625 207.679688 145.984375 204.589844 147.144531 C 201.5 148.304688 194.160156 120.441406 198.796875 114.636719 C 198.796875 114.636719 195.34375 113.546875 189.71875 114.828125 C 186.1875 115.636719 181.71875 118.011719 176.976562 120.203125 C 173.894531 121.628906 170.640625 123.417969 167.3125 125.667969 C 167.3125 125.667969 169.4375 138.242188 175.617188 143.660156 C 181.800781 149.078125 189.523438 157.59375 186.820312 161.851562 C 184.117188 166.109375 176.390625 157.59375 172.914062 147.917969 C 169.4375 138.242188 162.097656 127.796875 162.097656 127.796875 C 162.097656 127.796875 160.199219 128.882812 157.535156 130.691406 C 154.875 132.503906 152.199219 136.714844 149.15625 139.597656 C 147.128906 141.519531 144.523438 141.921875 143.171875 144.050781 C 143.171875 144.050781 151.667969 164.171875 160.9375 168.429688 C 170.210938 172.6875 174.074219 181.203125 165.1875 177.71875 C 156.304688 174.234375 147.035156 156.046875 138.148438 148.695312 C 138.148438 148.695312 136.351562 150.984375 134.070312 154.59375 C 132.195312 157.558594 129.320312 159.785156 127.527344 163.980469 C 126.757812 165.777344 126.738281 169.257812 126.171875 171.140625 C 126.171875 171.140625 135.832031 184.683594 144.714844 190.878906 C 153.601562 197.070312 154.757812 202.488281 147.417969 200.9375 C 140.082031 199.390625 133.511719 183.523438 125.015625 175.398438 C 125.015625 175.398438 119.605469 190.878906 120.378906 198.230469 C 121.152344 205.582031 125.789062 202.875 127.332031 211.390625 C 128.878906 219.902344 147.417969 232.289062 157.078125 219.515625 C 157.078125 219.515625 148.578125 238.480469 162.484375 247.382812 C 176.390625 256.28125 185.46875 246.027344 195.125 246.800781 C 204.78125 247.574219 221.777344 256.476562 234.914062 230.546875 C 234.914062 230.546875 216.5625 225.320312 201.886719 224.933594 C 187.207031 224.546875 178.320312 216.808594 192.613281 214.871094 C 206.90625 212.9375 219.652344 222.613281 242.058594 226.480469 C 242.058594 226.480469 242.355469 222.324219 244.183594 218.550781 C 245.695312 215.429688 248.605469 213.039062 250.125 209.34375 C 251.0625 207.050781 251.894531 204.824219 252.488281 202.875 C 252.488281 202.875 243.726562 198.109375 228.730469 195.714844 C 223.734375 194.917969 214.828125 194.941406 209.609375 194.746094 C 188.75 193.972656 198.023438 183.136719 217.335938 189.328125 "/>
</g>
<g clip-path="url(#clip2)" clip-rule="nonzero">
<path style="fill:none;stroke-width:12.633;stroke-linecap:butt;stroke-linejoin:miter;stroke:rgb(53.329468%,81.17981%,14.509583%);stroke-opacity:1;stroke-miterlimit:10;" d="M 2569.124167 3174.466731 C 2609.110956 3496.563012 2516.489799 3622.927783 2263.793733 3913.528505 C 2011.22542 4204.001714 2049.040402 4532.473613 2049.040402 4532.473613 M 3040.789423 3646.135037 C 3249.155087 3909.320596 3223.987683 4570.472303 3223.987683 4570.472303 M 3931.357814 3622.927783 C 3198.692526 3711.421377 2922.873109 3561.849352 2922.873109 3561.849352 M 4272.586931 2675.383263 C 4272.586931 2675.383263 3931.357814 2902.865355 3223.987683 2801.748035 C 2516.489799 2700.758228 2173.344382 2660.719339 2173.344382 2660.719339 M 1735.406003 2138.55613 C 1735.406003 2138.55613 1910.172544 1879.578479 2971.291617 1828.956063 C 4032.538443 1778.461159 4019.890864 1652.096388 4019.890864 1652.096388 M 1411.040324 1717.382728 C 1411.040324 1717.382728 1265.7848 1096.269909 1682.643882 894.162781 C 2099.630717 691.928142 2466.027238 881.539056 2794.353269 894.162781 C 3122.934807 906.786507 3362.983295 830.916639 3362.983295 830.916639 M 166.722991 2208.050379 C 166.722991 2208.050379 575.150354 1428.949717 1432.119622 1793.252596 M 583.582073 3180.714838 C 583.582073 3180.714838 773.040246 2713.254441 1177.379503 2485.899862 C 1581.591006 2258.545282 1659.520531 2029.022993 1659.520531 2029.022993 M 2124.798121 2726.005679 C 2036.392824 2940.736533 1783.696758 3168.091112 1531.128445 3294.455884 C 1278.432379 3420.820656 1190.027081 3888.281053 1190.027081 3888.281053 " transform="matrix(0.0305765,0,0,-0.0306343,120.304537,262.774845)"/>
</g>
<g clip-path="url(#clip3)" clip-rule="nonzero">
<path style=" stroke:none;fill-rule:nonzero;fill:rgb(53.329468%,81.17981%,14.509583%);fill-opacity:1;" d="M 221.394531 144.242188 C 214.804688 149.734375 209.554688 155.4375 202.464844 163.207031 C 190.742188 176.050781 177.683594 191.625 166.925781 206.164062 C 147.363281 232.613281 132.882812 256.652344 129.941406 261.765625 C 129.359375 262.777344 128.050781 263.082031 127.082031 262.433594 C 126.152344 261.816406 125.902344 260.558594 126.523438 259.628906 C 132.136719 251.257812 157.949219 213.144531 185.273438 179.265625 C 187.207031 176.871094 189.160156 174.542969 191.121094 172.28125 C 220.554688 138.355469 252.355469 119.558594 253.261719 120.828125 C 254.433594 121.878906 238.894531 129.652344 221.394531 144.242188 "/>
</g>
</g>
</svg>
