<?xml version="1.0" encoding="UTF-8"?>
<svg xmlns="http://www.w3.org/2000/svg" xmlns:xlink="http://www.w3.org/1999/xlink" width="375pt" height="374.999991pt" viewBox="0 0 375 374.999991" version="1.2">
<defs>
<clipPath id="clip1">
  <path d="M 96.949219 200 L 253 200 L 253 241.390625 L 96.949219 241.390625 Z M 96.949219 200 "/>
</clipPath>
<clipPath id="clip2">
  <path d="M 97 200 L 253 200 L 253 241.390625 L 97 241.390625 Z M 97 200 "/>
</clipPath>
<clipPath id="clip3">
  <path d="M 259 139 L 290.449219 139 L 290.449219 171 L 259 171 Z M 259 139 "/>
</clipPath>
</defs>
<g id="surface1">
<path style=" stroke:none;fill-rule:nonzero;fill:rgb(55.288696%,8.628845%,5.879211%);fill-opacity:1;" d="M 243.058594 120.574219 C 253.945312 141.164062 286.300781 151.542969 268.402344 160.925781 C 250.507812 170.308594 189.136719 175.144531 178.246094 154.554688 C 167.363281 133.960938 173.042969 109.660156 190.941406 100.277344 C 208.835938 90.894531 232.171875 99.980469 243.058594 120.574219 Z M 243.058594 120.574219 "/>
<path style=" stroke:none;fill-rule:nonzero;fill:rgb(84.709167%,5.879211%,8.628845%);fill-opacity:1;" d="M 251.300781 183.242188 C 251.300781 218.921875 210.757812 236.882812 174.929688 236.882812 C 139.101562 236.882812 98.558594 220.09375 98.558594 184.417969 C 98.558594 148.738281 197.632812 65.199219 208.839844 115.117188 C 216.65625 149.9375 251.300781 147.5625 251.300781 183.242188 Z M 251.300781 183.242188 "/>
<path style=" stroke:none;fill-rule:nonzero;fill:rgb(75.689697%,6.669617%,7.058716%);fill-opacity:1;" d="M 218.851562 135.527344 C 219.699219 141.597656 220.101562 147.601562 220.320312 153.832031 C 220.542969 160.042969 220.828125 166.546875 219.066406 172.585938 C 215.007812 186.503906 200.335938 190.683594 187.316406 191.613281 C 180.28125 192.117188 173.226562 191.734375 166.1875 191.539062 C 157.523438 191.296875 148.863281 191.46875 140.207031 190.957031 C 131.859375 190.464844 123.613281 189.203125 115.3125 188.261719 C 109.71875 187.628906 104.109375 186.984375 98.585938 185.914062 C 99.703125 220.5625 139.609375 236.882812 174.929688 236.882812 C 210.757812 236.882812 251.300781 218.921875 251.300781 183.242188 C 251.300781 156.539062 231.890625 151.148438 218.851562 135.527344 Z M 218.851562 135.527344 "/>
<g clip-path="url(#clip1)" clip-rule="nonzero">
<path style=" stroke:none;fill-rule:nonzero;fill:rgb(84.309387%,81.17981%,81.568909%);fill-opacity:1;" d="M 238.835938 241.382812 L 111.023438 241.382812 C 103.304688 241.382812 96.984375 235.09375 96.984375 227.402344 L 96.984375 214.058594 C 96.984375 206.367188 103.304688 200.078125 111.023438 200.078125 L 238.835938 200.078125 C 246.554688 200.078125 252.871094 206.371094 252.871094 214.058594 L 252.871094 227.402344 C 252.871094 235.09375 246.554688 241.382812 238.835938 241.382812 Z M 238.835938 241.382812 "/>
</g>
<g clip-path="url(#clip2)" clip-rule="nonzero">
<path style=" stroke:none;fill-rule:nonzero;fill:rgb(83.918762%,73.728943%,73.329163%);fill-opacity:1;" d="M 241.441406 200.328125 C 241.828125 201.605469 242.042969 202.953125 242.042969 204.351562 L 242.042969 217.695312 C 242.042969 225.386719 235.726562 231.675781 228.003906 231.675781 L 100.195312 231.675781 C 99.304688 231.675781 98.433594 231.582031 97.585938 231.421875 C 99.332031 237.167969 104.707031 241.382812 111.023438 241.382812 L 238.835938 241.382812 C 246.554688 241.382812 252.875 235.09375 252.875 227.402344 L 252.875 214.058594 C 252.871094 207.257812 247.925781 201.558594 241.441406 200.328125 Z M 241.441406 200.328125 "/>
</g>
<g clip-path="url(#clip3)" clip-rule="nonzero">
<path style=" stroke:none;fill-rule:nonzero;fill:rgb(83.918762%,73.728943%,73.329163%);fill-opacity:1;" d="M 290.78125 155.25 C 290.78125 156.261719 290.679688 157.269531 290.480469 158.265625 C 290.28125 159.261719 289.988281 160.226562 289.597656 161.167969 C 289.207031 162.105469 288.730469 162.996094 288.164062 163.839844 C 287.59375 164.683594 286.953125 165.464844 286.230469 166.183594 C 285.511719 166.902344 284.726562 167.542969 283.878906 168.105469 C 283.03125 168.671875 282.132812 169.148438 281.191406 169.535156 C 280.25 169.925781 279.28125 170.21875 278.28125 170.417969 C 277.277344 170.613281 276.269531 170.714844 275.25 170.714844 C 274.230469 170.714844 273.21875 170.613281 272.21875 170.417969 C 271.21875 170.21875 270.25 169.925781 269.304688 169.535156 C 268.363281 169.148438 267.46875 168.671875 266.621094 168.105469 C 265.773438 167.542969 264.988281 166.902344 264.269531 166.183594 C 263.546875 165.464844 262.902344 164.683594 262.335938 163.839844 C 261.769531 162.996094 261.292969 162.105469 260.902344 161.167969 C 260.511719 160.226562 260.21875 159.261719 260.019531 158.265625 C 259.820312 157.269531 259.71875 156.261719 259.71875 155.25 C 259.71875 154.234375 259.820312 153.226562 260.019531 152.230469 C 260.21875 151.234375 260.511719 150.269531 260.902344 149.328125 C 261.292969 148.390625 261.769531 147.5 262.335938 146.65625 C 262.902344 145.8125 263.546875 145.03125 264.269531 144.3125 C 264.988281 143.59375 265.773438 142.953125 266.621094 142.390625 C 267.46875 141.824219 268.363281 141.347656 269.304688 140.960938 C 270.25 140.570312 271.21875 140.277344 272.21875 140.078125 C 273.21875 139.882812 274.230469 139.78125 275.25 139.78125 C 276.269531 139.78125 277.277344 139.882812 278.28125 140.078125 C 279.28125 140.277344 280.25 140.570312 281.191406 140.960938 C 282.132812 141.347656 283.03125 141.824219 283.878906 142.390625 C 284.726562 142.953125 285.511719 143.59375 286.230469 144.3125 C 286.953125 145.03125 287.59375 145.8125 288.164062 146.65625 C 288.730469 147.5 289.207031 148.390625 289.597656 149.328125 C 289.988281 150.269531 290.28125 151.234375 290.480469 152.230469 C 290.679688 153.226562 290.78125 154.234375 290.78125 155.25 Z M 290.78125 155.25 "/>
</g>
<path style=" stroke:none;fill-rule:nonzero;fill:rgb(84.309387%,81.17981%,81.568909%);fill-opacity:1;" d="M 289.386719 153.003906 C 289.386719 153.785156 289.3125 154.558594 289.160156 155.328125 C 289.003906 156.097656 288.777344 156.839844 288.476562 157.566406 C 288.175781 158.289062 287.808594 158.976562 287.371094 159.625 C 286.933594 160.277344 286.4375 160.878906 285.882812 161.433594 C 285.324219 161.984375 284.722656 162.480469 284.066406 162.914062 C 283.414062 163.351562 282.722656 163.71875 281.996094 164.015625 C 281.273438 164.316406 280.523438 164.542969 279.75 164.695312 C 278.980469 164.847656 278.203125 164.925781 277.417969 164.925781 C 276.628906 164.925781 275.851562 164.847656 275.082031 164.695312 C 274.308594 164.542969 273.5625 164.316406 272.835938 164.015625 C 272.109375 163.71875 271.417969 163.351562 270.765625 162.914062 C 270.109375 162.480469 269.507812 161.984375 268.949219 161.433594 C 268.394531 160.878906 267.898438 160.277344 267.460938 159.625 C 267.023438 158.976562 266.65625 158.289062 266.355469 157.566406 C 266.054688 156.839844 265.828125 156.097656 265.671875 155.328125 C 265.519531 154.558594 265.445312 153.785156 265.445312 153.003906 C 265.445312 152.21875 265.519531 151.445312 265.671875 150.675781 C 265.828125 149.90625 266.054688 149.164062 266.355469 148.4375 C 266.65625 147.714844 267.023438 147.027344 267.460938 146.378906 C 267.898438 145.726562 268.394531 145.125 268.949219 144.570312 C 269.507812 144.019531 270.109375 143.523438 270.765625 143.089844 C 271.417969 142.652344 272.109375 142.285156 272.835938 141.988281 C 273.5625 141.6875 274.308594 141.460938 275.082031 141.308594 C 275.851562 141.15625 276.628906 141.078125 277.417969 141.078125 C 278.203125 141.078125 278.980469 141.15625 279.75 141.308594 C 280.523438 141.460938 281.273438 141.6875 281.996094 141.988281 C 282.722656 142.285156 283.414062 142.652344 284.066406 143.089844 C 284.722656 143.523438 285.324219 144.019531 285.882812 144.570312 C 286.4375 145.125 286.933594 145.726562 287.371094 146.378906 C 287.808594 147.027344 288.175781 147.714844 288.476562 148.4375 C 288.777344 149.164062 289.003906 149.90625 289.160156 150.675781 C 289.3125 151.445312 289.386719 152.21875 289.386719 153.003906 Z M 289.386719 153.003906 "/>
</g>
</svg>
